<svg width="187" height="58" viewBox="0 0 187 58" fill="none" xmlns="http://www.w3.org/2000/svg">
<path d="M17.088 27.44L12.552 36.608H10.32L5.808 27.44V38H2.064V21.224H7.128L11.448 30.44L15.792 21.224H20.832V38H17.088V27.44ZM35.8864 36.128C34.4304 37.504 32.7184 38.192 30.7504 38.192C28.7984 38.192 27.1824 37.592 25.9024 36.392C24.6224 35.176 23.9824 33.552 23.9824 31.52C23.9824 29.488 24.6304 27.872 25.9264 26.672C27.2384 25.472 28.7824 24.872 30.5584 24.872C32.3344 24.872 33.8384 25.408 35.0704 26.48C36.3184 27.552 36.9424 29.024 36.9424 30.896V32.816H27.5344C27.6464 33.52 28.0144 34.096 28.6384 34.544C29.2624 34.992 29.9664 35.216 30.7504 35.216C32.0144 35.216 33.0544 34.792 33.8704 33.944L35.8864 36.128ZM33.2944 30.248C33.2144 29.48 32.9264 28.888 32.4304 28.472C31.9344 28.056 31.3264 27.848 30.6064 27.848C29.9024 27.848 29.2544 28.064 28.6624 28.496C28.0704 28.928 27.7264 29.512 27.6304 30.248H33.2944ZM44.7984 38.192C43.2784 38.192 41.9184 37.544 40.7184 36.248C39.5184 34.952 38.9184 33.344 38.9184 31.424C38.9184 29.504 39.5024 27.936 40.6704 26.72C41.8384 25.488 43.2064 24.872 44.7744 24.872C46.3424 24.872 47.6224 25.424 48.6144 26.528V20.192H52.2144V38H48.6144V36.296C47.6064 37.56 46.3344 38.192 44.7984 38.192ZM42.5424 31.568C42.5424 32.608 42.8544 33.464 43.4784 34.136C44.1024 34.792 44.8304 35.12 45.6624 35.12C46.4944 35.12 47.1984 34.792 47.7744 34.136C48.3664 33.464 48.6624 32.608 48.6624 31.568C48.6624 30.512 48.3664 29.64 47.7744 28.952C47.1984 28.248 46.4864 27.896 45.6384 27.896C44.7904 27.896 44.0624 28.248 43.4544 28.952C42.8464 29.656 42.5424 30.528 42.5424 31.568ZM59.3227 38H55.7227V25.088H59.3227V38ZM56.0107 23.456C55.6107 23.04 55.4107 22.536 55.4107 21.944C55.4107 21.352 55.6107 20.856 56.0107 20.456C56.4267 20.04 56.9307 19.832 57.5227 19.832C58.1147 19.832 58.6107 20.04 59.0107 20.456C59.4267 20.856 59.6347 21.352 59.6347 21.944C59.6347 22.536 59.4267 23.04 59.0107 23.456C58.6107 23.856 58.1147 24.056 57.5227 24.056C56.9307 24.056 56.4267 23.856 56.0107 23.456ZM69.0226 35C70.2226 35 71.3026 34.4 72.2626 33.2L74.3986 35.6C72.7346 37.328 70.9346 38.192 68.9986 38.192C67.0626 38.192 65.4226 37.584 64.0786 36.368C62.7506 35.136 62.0866 33.536 62.0866 31.568C62.0866 29.584 62.7586 27.976 64.1026 26.744C65.4626 25.496 67.0706 24.872 68.9266 24.872C69.8546 24.872 70.7906 25.064 71.7346 25.448C72.6946 25.832 73.5346 26.4 74.2546 27.152L72.3826 29.6C71.9666 29.104 71.4546 28.72 70.8466 28.448C70.2546 28.176 69.6626 28.04 69.0706 28.04C68.1266 28.04 67.3106 28.352 66.6226 28.976C65.9506 29.584 65.6146 30.44 65.6146 31.544C65.6146 32.632 65.9506 33.48 66.6226 34.088C67.3106 34.696 68.1106 35 69.0226 35ZM87.8673 38H84.4833V36.44C83.5553 37.608 82.4033 38.192 81.0273 38.192C79.6673 38.192 78.5233 37.8 77.5953 37.016C76.6673 36.216 76.2033 35.16 76.2033 33.848C76.2033 32.52 76.6833 31.528 77.6433 30.872C78.6033 30.216 79.9153 29.888 81.5793 29.888H84.2673V29.816C84.2673 28.44 83.5393 27.752 82.0833 27.752C81.4593 27.752 80.7953 27.88 80.0913 28.136C79.4033 28.376 78.8193 28.68 78.3393 29.048L76.7313 26.72C78.4273 25.488 80.3633 24.872 82.5393 24.872C84.1073 24.872 85.3873 25.264 86.3793 26.048C87.3713 26.832 87.8673 28.072 87.8673 29.768V38ZM84.2433 33.08V32.456H81.9873C80.5473 32.456 79.8273 32.904 79.8273 33.8C79.8273 34.264 79.9953 34.624 80.3313 34.88C80.6833 35.12 81.1793 35.24 81.8193 35.24C82.4593 35.24 83.0193 35.048 83.4993 34.664C83.9953 34.264 84.2433 33.736 84.2433 33.08ZM94.8493 38H91.2493V20.192H94.8493V38ZM112.325 26.792C112.325 29.48 111.261 31.216 109.133 32L113.381 38H108.773L105.053 32.648H102.461V38H98.7171V21.224H105.077C107.685 21.224 109.541 21.664 110.645 22.544C111.765 23.424 112.325 24.84 112.325 26.792ZM105.197 29.408C106.477 29.408 107.349 29.2 107.813 28.784C108.277 28.368 108.509 27.712 108.509 26.816C108.509 25.904 108.269 25.28 107.789 24.944C107.309 24.608 106.469 24.44 105.269 24.44H102.461V29.408H105.197ZM127.079 36.128C125.623 37.504 123.911 38.192 121.943 38.192C119.991 38.192 118.375 37.592 117.095 36.392C115.815 35.176 115.175 33.552 115.175 31.52C115.175 29.488 115.823 27.872 117.119 26.672C118.431 25.472 119.975 24.872 121.751 24.872C123.527 24.872 125.031 25.408 126.263 26.48C127.511 27.552 128.135 29.024 128.135 30.896V32.816H118.727C118.839 33.52 119.207 34.096 119.831 34.544C120.455 34.992 121.159 35.216 121.943 35.216C123.207 35.216 124.247 34.792 125.063 33.944L127.079 36.128ZM124.487 30.248C124.407 29.48 124.119 28.888 123.623 28.472C123.127 28.056 122.519 27.848 121.799 27.848C121.095 27.848 120.447 28.064 119.855 28.496C119.263 28.928 118.919 29.512 118.823 30.248H124.487ZM137.023 35C138.223 35 139.303 34.4 140.263 33.2L142.399 35.6C140.735 37.328 138.935 38.192 136.999 38.192C135.063 38.192 133.423 37.584 132.079 36.368C130.751 35.136 130.087 33.536 130.087 31.568C130.087 29.584 130.759 27.976 132.103 26.744C133.463 25.496 135.071 24.872 136.927 24.872C137.855 24.872 138.791 25.064 139.735 25.448C140.695 25.832 141.535 26.4 142.255 27.152L140.383 29.6C139.967 29.104 139.455 28.72 138.847 28.448C138.255 28.176 137.663 28.04 137.071 28.04C136.127 28.04 135.311 28.352 134.623 28.976C133.951 29.584 133.615 30.44 133.615 31.544C133.615 32.632 133.951 33.48 134.623 34.088C135.311 34.696 136.111 35 137.023 35ZM147.568 31.544C147.568 32.6 147.864 33.464 148.456 34.136C149.064 34.792 149.832 35.12 150.76 35.12C151.704 35.12 152.472 34.792 153.064 34.136C153.672 33.464 153.976 32.6 153.976 31.544C153.976 30.488 153.672 29.624 153.064 28.952C152.472 28.28 151.704 27.944 150.76 27.944C149.832 27.944 149.064 28.28 148.456 28.952C147.864 29.624 147.568 30.488 147.568 31.544ZM157.6 31.544C157.6 33.416 156.952 34.992 155.656 36.272C154.36 37.552 152.728 38.192 150.76 38.192C148.808 38.192 147.184 37.552 145.888 36.272C144.592 34.992 143.944 33.416 143.944 31.544C143.944 29.672 144.592 28.096 145.888 26.816C147.184 25.52 148.808 24.872 150.76 24.872C152.728 24.872 154.36 25.52 155.656 26.816C156.952 28.096 157.6 29.672 157.6 31.544ZM163.573 38L158.461 25.064H162.205L165.421 33.2L168.637 25.064H172.381L167.269 38H163.573Z" fill="#252B42"/>
</svg>
